<svg width="58" height="58" viewBox="0 0 58 58" fill="none" xmlns="http://www.w3.org/2000/svg">
<g clip-path="url(#clip0_11_653)">
<path d="M10.2708 0H47.7326C50.4566 0 53.069 1.10985 54.9951 3.08538C56.9213 5.06092 58.0034 7.74033 58.0034 10.5342V47.4658C58.0034 50.2597 56.9213 52.9391 54.9951 54.9146C53.069 56.8902 50.4566 58 47.7326 58H10.2708C7.54685 58 4.93442 56.8902 3.00826 54.9146C1.0821 52.9391 0 50.2597 0 47.4658L0 10.5342C0 7.74033 1.0821 5.06092 3.00826 3.08538C4.93442 1.10985 7.54685 0 10.2708 0V0Z" fill="#1E3101"/>
<path d="M12.5457 40.673V15.1728C12.5457 14.987 12.6226 14.8942 12.7788 14.8942C13.193 14.8942 13.6857 14.8876 14.2569 14.8744C14.8281 14.8613 15.4441 14.8477 16.1051 14.8338L18.2068 14.7943C18.9462 14.7804 19.6788 14.7734 20.4047 14.7734C22.3762 14.7734 24.0362 15.0265 25.3845 15.5326C26.6019 15.9541 27.7121 16.6493 28.6338 17.5675C29.4153 18.3631 30.0192 19.3231 30.4039 20.3812C30.7682 21.4107 30.9529 22.4979 30.9494 23.5931C30.9494 25.722 30.4696 27.4779 29.5098 28.8608C28.5437 30.2507 27.1859 31.304 25.6188 31.8788C23.8724 32.5232 22.0274 32.8409 20.1715 32.8167C19.6004 32.8167 19.1982 32.8098 18.9651 32.7959C18.7319 32.7831 18.3811 32.7761 17.9148 32.7761V40.6381C17.9261 40.7214 17.9048 40.8058 17.8556 40.873C17.8064 40.9403 17.7333 40.9848 17.6522 40.9968C17.6233 41.0015 17.5939 41.0015 17.5651 40.9968H12.8173C12.6362 40.9922 12.5457 40.8866 12.5457 40.673ZM17.9148 19.6824V27.9438C18.2513 27.9708 18.5625 27.984 18.8485 27.9832H20.1319C21.0737 27.9971 22.012 27.8625 22.9138 27.5839C23.6848 27.3491 24.3738 26.8922 24.899 26.2676C25.4045 25.6562 25.6573 24.805 25.6573 23.7138C25.6768 22.9421 25.4805 22.1808 25.0914 21.5199C24.6808 20.8799 24.0881 20.3851 23.3937 20.1026C22.4894 19.7427 21.5236 19.5733 20.5541 19.6046C19.9316 19.6046 19.3804 19.6112 18.9006 19.6244C18.4207 19.6375 18.0898 19.6573 17.908 19.6836L17.9148 19.6824Z" fill="#99E83F"/>
<path d="M45.384 37.0421V40.3143C45.384 40.6069 45.2803 40.7798 45.0728 40.8332C44.562 40.9969 44.0424 41.1302 43.5166 41.2325C42.9003 41.3451 42.2751 41.3983 41.6492 41.3915C39.9628 41.3915 38.6402 40.9392 37.6812 40.0346C36.7222 39.1299 36.2423 37.6801 36.2415 35.6851V25.7882H33.9441C33.7369 25.7882 33.6328 25.6721 33.6328 25.4295V21.4747C33.6328 21.2623 33.746 21.1555 33.9837 21.1555H36.2789C36.3045 20.7036 36.337 20.1781 36.3762 19.5792C36.4158 18.9813 36.4668 18.3824 36.5324 17.7834C36.5981 17.1844 36.6546 16.6992 36.7067 16.3278C36.7315 16.2484 36.7698 16.1741 36.8199 16.1084C36.8703 16.0434 36.9379 15.9947 37.0145 15.9679L41.6492 15.3736C41.7196 15.3522 41.795 15.3559 41.8631 15.3841C41.9151 15.4108 41.9219 15.4804 41.9219 15.6162C41.8699 16.2283 41.8321 17.0599 41.8087 18.1108C41.7854 19.1617 41.7593 20.1789 41.7307 21.1625H45.3523C45.5085 21.1625 45.5866 21.2693 45.5866 21.4817V25.5131C45.5958 25.5764 45.5807 25.6409 45.5443 25.6929C45.508 25.7449 45.4533 25.7803 45.3919 25.7917H41.6876V34.3316C41.6876 35.237 41.8385 35.8824 42.1404 36.2678C42.4422 36.6532 42.9933 36.8467 43.7939 36.8482C44.027 36.8482 44.2466 36.8424 44.456 36.8285C44.6653 36.8146 44.8702 36.7948 45.0784 36.7681C45.1133 36.7549 45.1506 36.7498 45.1876 36.7532C45.2246 36.7567 45.2604 36.7685 45.2923 36.7879C45.3271 36.819 45.3537 36.8586 45.3698 36.903C45.3858 36.9474 45.3907 36.9952 45.384 37.0421Z" fill="#99E83F"/>
</g>
<defs>
<clipPath id="clip0_11_653">
<rect width="58" height="58" fill="white"/>
</clipPath>
</defs>
</svg>
