<svg width="41" height="58" viewBox="0 0 41 58" fill="none" xmlns="http://www.w3.org/2000/svg">
<path d="M20.4685 57.8535L3.73016 53.2067L0 11.3696H40.9872L37.2532 53.2003L20.4685 57.8535Z" fill="#264DE4"/>
<path d="M34.0565 50.5368L37.2473 14.7905H20.4937V54.2969L34.0565 50.5368Z" fill="#2965F1"/>
<path d="M8.5511 30.3074L9.01092 35.4386H20.4935V30.3074H8.5511ZM7.62695 19.9219L8.09336 25.053H20.4935V19.9219H7.62695ZM20.4935 43.6336L20.471 43.6395L14.7565 42.0965L14.3911 38.0042H9.24019L9.959 46.0609L20.4699 48.9786L20.4935 48.9722V43.6336Z" fill="#EBEBEB"/>
<path d="M9.64648 0H15.861V2.59891H12.2454V5.19783H15.8613V7.79658H9.64648V0ZM17.1041 0H23.3187V2.25991H19.703V2.71186H23.3187V7.90969H17.1042V5.53651H20.72V5.08456H17.1039V0H17.1041ZM24.5618 0H30.7765V2.25991H27.1607V2.71186H30.7765V7.90969H24.5618V5.53651H28.1776V5.08456H24.562V0H24.5618Z" fill="white"/>
<path d="M32.403 30.3074L33.3293 19.9219H20.4757V25.053H27.706L27.2391 30.3074H20.4757V35.4386H26.7942L26.1985 42.0933L20.4756 43.6379V48.9762L30.9948 46.0609L31.0719 45.194L32.2779 31.6853L32.403 30.3074Z" fill="white"/>
</svg>
