<svg width="58" height="58" viewBox="0 0 58 58" fill="none" xmlns="http://www.w3.org/2000/svg">
<g clip-path="url(#clip0_11_605)">
<path d="M10.2708 4.67489e-06H47.7292C49.0783 -0.00129951 50.4145 0.270285 51.6612 0.799216C52.9078 1.32815 54.0406 2.10404 54.9946 3.08249C55.9486 4.06094 56.7051 5.22274 57.2208 6.50139C57.7365 7.78005 58.0013 9.15046 58 10.5342V47.4658C58.0013 48.8496 57.7365 50.22 57.2208 51.4986C56.7051 52.7773 55.9486 53.9391 54.9946 54.9175C54.0406 55.896 52.9078 56.6719 51.6612 57.2008C50.4145 57.7297 49.0783 58.0013 47.7292 58H10.2708C8.9217 58.0013 7.58555 57.7297 6.33886 57.2008C5.09217 56.6719 3.95941 55.896 3.00543 54.9175C2.05144 53.9391 1.29494 52.7773 0.779235 51.4986C0.263528 50.22 -0.00126702 48.8496 4.55802e-06 47.4658V10.5342C-0.00126702 9.15046 0.263528 7.78005 0.779235 6.50139C1.29494 5.22274 2.05144 4.06094 3.00543 3.08249C3.95941 2.10404 5.09217 1.32815 6.33886 0.799216C7.58555 0.270285 8.9217 -0.00129951 10.2708 4.67489e-06Z" fill="#000B1D"/>
<path d="M22.9584 47.5898C26.2951 47.5898 29.0001 44.8155 29.0001 41.3932V35.1967H22.9584C19.6217 35.1967 16.9167 37.971 16.9167 41.3932C16.9167 44.8155 19.6217 47.5898 22.9584 47.5898Z" fill="#0ACF83"/>
<path d="M16.9167 29C16.9167 25.5778 19.6217 22.8035 22.9584 22.8035H29.0001V35.1966H22.9584C19.6217 35.1966 16.9167 32.4223 16.9167 29Z" fill="#A259FF"/>
<path d="M16.9167 16.6069C16.9167 13.1846 19.6217 10.4103 22.9584 10.4103H29.0001V22.8034H22.9584C19.6217 22.8034 16.9167 20.0291 16.9167 16.6069Z" fill="#F24E1E"/>
<path d="M29 10.4103H35.0417C38.3784 10.4103 41.0833 13.1846 41.0833 16.6069C41.0833 20.0291 38.3784 22.8034 35.0417 22.8034H29V10.4103Z" fill="#FF7262"/>
<path d="M41.0833 29C41.0833 32.4223 38.3784 35.1966 35.0417 35.1966C31.7049 35.1966 29 32.4223 29 29C29 25.5778 31.7049 22.8035 35.0417 22.8035C38.3784 22.8035 41.0833 25.5778 41.0833 29Z" fill="#1ABCFE"/>
</g>
<defs>
<clipPath id="clip0_11_605">
<rect width="58" height="58" fill="white"/>
</clipPath>
</defs>
</svg>
