<svg width="60" height="60" viewBox="0 0 60 60" fill="none" xmlns="http://www.w3.org/2000/svg">
<path d="M11.3726 0.555547H49.405C50.7748 0.554223 52.1314 0.82997 53.3972 1.36701C54.663 1.90404 55.8131 2.69183 56.7817 3.68527C57.7504 4.67872 58.5184 5.85832 59.0421 7.15657C59.5657 8.45482 59.8345 9.84624 59.8332 11.2512V48.7488C59.8345 50.1537 59.5657 51.5452 59.0421 52.8434C58.5184 54.1417 57.7504 55.3213 56.7817 56.3147C55.8131 57.3082 54.663 58.0959 53.3972 58.633C52.1314 59.17 50.7748 59.4458 49.405 59.4444H11.3726C10.0028 59.4458 8.64613 59.17 7.38034 58.633C6.11454 58.0959 4.96443 57.3082 3.99582 56.3147C3.02721 55.3213 2.25912 54.1417 1.73551 52.8434C1.2119 51.5452 0.94305 50.1537 0.944341 48.7488V11.2512C0.94305 9.84624 1.2119 8.45482 1.73551 7.15657C2.25912 5.85832 3.02721 4.67872 3.99582 3.68527C4.96443 2.69183 6.11454 1.90404 7.38034 1.36701C8.64613 0.82997 10.0028 0.554223 11.3726 0.555547Z" fill="#330000"/>
<path d="M29.4811 35.8889H20.3533L18.4885 41.803C18.4677 41.9108 18.4083 42.0067 18.322 42.0719C18.2358 42.1371 18.1289 42.1668 18.0223 42.1553H13.4093C13.1394 42.1553 13.0658 42.0043 13.1394 41.7023L21.0404 18.3732C21.114 18.1216 21.1876 17.8448 21.2857 17.5428C21.3845 17.0034 21.4338 16.4557 21.4329 15.907C21.4256 15.8439 21.4417 15.7804 21.4781 15.729C21.5145 15.6777 21.5685 15.6424 21.6292 15.6301H27.9843C28.1806 15.6301 28.2788 15.7056 28.3033 15.8315L37.2593 41.7526C37.3329 42.0295 37.2593 42.1553 37.014 42.1553H31.8857C31.799 42.1639 31.7121 42.1408 31.6403 42.0902C31.5685 42.0396 31.5164 41.9646 31.4931 41.8785L29.4811 35.8889ZM21.7765 30.7802H28.0089C27.8617 30.2517 27.6654 29.6225 27.4445 28.9682C27.2237 28.3139 27.0029 27.5589 26.782 26.8039C26.5612 26.0489 26.3158 25.2688 26.0704 24.4886C25.8251 23.7085 25.6042 22.9787 25.4079 22.2488C25.2117 21.519 25.0399 20.8899 24.8681 20.2859H24.8191C24.5985 21.3827 24.32 22.4665 23.9848 23.5323C23.6167 24.7403 23.2487 25.9986 22.8561 27.2569C22.5126 28.5404 22.1445 29.7232 21.7765 30.7802Z" fill="#FF9A00"/>
<path d="M42.6084 19.9335C42.2056 19.9426 41.8051 19.8693 41.4302 19.7181C41.0553 19.5669 40.7135 19.3407 40.4246 19.0527C39.8624 18.4223 39.563 17.5913 39.5903 16.7374C39.5759 16.3214 39.647 15.9069 39.7992 15.5209C39.9514 15.135 40.1812 14.7863 40.4737 14.4976C41.0635 13.9259 41.846 13.6103 42.6575 13.6168C43.6144 13.6168 44.3505 13.9188 44.8903 14.4976C45.4339 15.1078 45.7244 15.9112 45.7001 16.7374C45.715 17.1626 45.6467 17.5866 45.4992 17.9842C45.3517 18.3819 45.128 18.7452 44.8413 19.0527C44.5521 19.3547 44.2032 19.5897 43.818 19.7416C43.4328 19.8936 43.0203 19.959 42.6084 19.9335ZM39.8603 41.7778V22.3998C39.8603 22.1481 39.9584 22.0475 40.1792 22.0475H45.0376C45.2584 22.0475 45.3565 22.1733 45.3565 22.3998V41.7778C45.3565 42.0546 45.2584 42.1804 45.0376 42.1804H40.2283C40.1767 42.1848 40.1249 42.1771 40.0766 42.1581C40.0283 42.139 39.9849 42.109 39.9495 42.0703C39.9141 42.0315 39.8877 41.9851 39.8722 41.9345C39.8568 41.8838 39.8527 41.8303 39.8603 41.7778Z" fill="#FF9A00"/>
</svg>
