<svg width="58" height="58" viewBox="0 0 58 58" fill="none" xmlns="http://www.w3.org/2000/svg">
<g clip-path="url(#clip0_11_593)">
<path d="M10.2708 4.67489e-06H47.7292C49.0783 -0.00129951 50.4145 0.270285 51.6612 0.799216C52.9078 1.32815 54.0406 2.10404 54.9946 3.08249C55.9486 4.06094 56.7051 5.22274 57.2208 6.50139C57.7365 7.78005 58.0013 9.15046 58 10.5342V47.4658C58.0013 48.8496 57.7365 50.22 57.2208 51.4986C56.7051 52.7773 55.9486 53.9391 54.9946 54.9175C54.0406 55.896 52.9078 56.6719 51.6612 57.2008C50.4145 57.7297 49.0783 58.0013 47.7292 58H10.2708C8.9217 58.0013 7.58555 57.7297 6.33886 57.2008C5.09217 56.6719 3.95941 55.896 3.00543 54.9175C2.05144 53.9391 1.29494 52.7773 0.779235 51.4986C0.263528 50.22 -0.00126702 48.8496 4.55802e-06 47.4658V10.5342C-0.00126702 9.15046 0.263528 7.78005 0.779235 6.50139C1.29494 5.22274 2.05144 4.06094 3.00543 3.08249C3.95941 2.10404 5.09217 1.32815 6.33886 0.799216C7.58555 0.270285 8.9217 -0.00129951 10.2708 4.67489e-06Z" fill="#001E36"/>
<path d="M13.05 40.6743V15.1692C13.05 14.9957 13.1225 14.8965 13.2917 14.8965C13.7025 14.8965 14.0892 14.8965 14.645 14.8717C15.2009 14.8469 15.8292 14.8469 16.4817 14.8222C17.1342 14.7974 17.835 14.7974 18.5842 14.7726C19.3334 14.7478 20.0584 14.7478 20.7834 14.7478C22.765 14.7478 24.4084 14.9957 25.7617 15.5162C26.9749 15.9387 28.0811 16.633 29 17.5487C29.7788 18.35 30.3804 19.3136 30.7642 20.3743C31.13 21.4073 31.3181 22.4975 31.32 23.5965C31.32 25.7281 30.8367 27.488 29.87 28.876C28.8989 30.2621 27.543 31.3159 25.9792 31.8999C24.3359 32.5196 22.5234 32.7427 20.5417 32.7427C19.9617 32.7427 19.575 32.7427 19.3334 32.7179C19.0917 32.6931 18.7534 32.6931 18.2942 32.6931V40.6495C18.2996 40.6903 18.297 40.7318 18.2864 40.7715C18.2759 40.8112 18.2577 40.8484 18.2329 40.8807C18.2081 40.9131 18.1772 40.94 18.1421 40.9599C18.107 40.9798 18.0683 40.9922 18.0284 40.9965H13.34C13.1467 40.9965 13.05 40.8974 13.05 40.6743ZM18.3184 19.6803V28.0085C18.6567 28.0333 18.9709 28.0581 19.2609 28.0581H20.5417C21.4851 28.0592 22.4229 27.9087 23.3209 27.6119C24.0913 27.3795 24.7796 26.9233 25.3025 26.2982C25.81 25.6786 26.0517 24.8358 26.0517 23.7452C26.0745 22.9707 25.8817 22.2055 25.4959 21.5393C25.0929 20.8957 24.5003 20.4008 23.8042 20.1264C22.897 19.762 21.9262 19.5932 20.9525 19.6307C20.3242 19.6307 19.7684 19.6307 19.3092 19.6555C18.9789 19.6333 18.6473 19.6416 18.3184 19.6803Z" fill="#31A8FF"/>
<path d="M46.4001 26.4965C45.6704 26.1023 44.889 25.8185 44.0801 25.6537C43.1917 25.4474 42.2843 25.3394 41.3734 25.3315C40.8843 25.3142 40.3955 25.3727 39.9234 25.505C39.6224 25.5693 39.3554 25.746 39.1742 26.0008C39.0521 26.2019 38.9853 26.4331 38.9809 26.67C38.9921 26.9058 39.0769 27.1317 39.2226 27.3144C39.4516 27.59 39.7307 27.8173 40.0442 27.9837C40.6001 28.2811 41.1801 28.5537 41.7601 28.8016C43.0657 29.2524 44.3149 29.8598 45.4817 30.611C46.2754 31.1228 46.9317 31.83 47.3909 32.6683C47.7793 33.459 47.9702 34.3362 47.9467 35.2213C47.9663 36.3928 47.6376 37.5427 47.0042 38.5178C46.3302 39.5073 45.3896 40.2739 44.2976 40.7238C43.1134 41.2443 41.6634 41.517 39.9234 41.517C38.8202 41.5216 37.7192 41.4136 36.6367 41.1948C35.7844 41.0437 34.9555 40.777 34.1717 40.4016C34.0875 40.3583 34.0174 40.2906 33.9702 40.2069C33.923 40.1232 33.9006 40.0272 33.9059 39.9307V35.6179C33.9038 35.5755 33.9115 35.5332 33.9283 35.4945C33.9451 35.4557 33.9705 35.4216 34.0026 35.3948C34.0366 35.3744 34.0762 35.3659 34.1153 35.3703C34.1545 35.3748 34.1912 35.392 34.2201 35.4196C35.151 35.9824 36.1621 36.3923 37.2167 36.6341C38.1479 36.8826 39.1063 37.0075 40.0684 37.0059C40.9867 37.0059 41.6392 36.882 42.0742 36.6589C42.2683 36.567 42.4327 36.4202 42.5483 36.2358C42.6639 36.0514 42.7258 35.837 42.7267 35.6179C42.7267 35.2708 42.5334 34.9486 42.1467 34.6264C41.7601 34.3042 40.9626 33.9324 39.7784 33.4614C38.5636 33.0224 37.41 32.4225 36.3467 31.6768C35.5895 31.1233 34.962 30.4035 34.5101 29.57C34.1244 28.7871 33.9335 27.9186 33.9542 27.0418C33.9578 25.9841 34.2418 24.9474 34.7759 24.0426C35.3898 23.0476 36.271 22.2557 37.3134 21.7623C38.4492 21.1674 39.8751 20.8948 41.5909 20.8948C42.5937 20.8951 43.5952 20.9696 44.5876 21.1179C45.3011 21.2169 45.9995 21.4084 46.6659 21.6879C46.7721 21.7265 46.859 21.8068 46.9076 21.911C46.9354 22.0078 46.9517 22.1077 46.9559 22.2084V26.2486C46.9563 26.2968 46.9455 26.3444 46.9245 26.3874C46.9035 26.4305 46.8729 26.4679 46.8351 26.4965C46.6945 26.5483 46.5407 26.5483 46.4001 26.4965Z" fill="#31A8FF"/>
</g>
<defs>
<clipPath id="clip0_11_593">
<rect width="58" height="58" fill="white"/>
</clipPath>
</defs>
</svg>
