<svg width="58" height="58" viewBox="0 0 58 58" fill="none" xmlns="http://www.w3.org/2000/svg">
<g clip-path="url(#clip0_11_629)">
<path d="M10.2708 4.67489e-06H47.7292C49.0783 -0.00129951 50.4145 0.270285 51.6612 0.799216C52.9078 1.32815 54.0406 2.10404 54.9946 3.08249C55.9486 4.06094 56.7051 5.22274 57.2208 6.50139C57.7365 7.78005 58.0013 9.15046 58 10.5342V47.4658C58.0013 48.8496 57.7365 50.22 57.2208 51.4986C56.7051 52.7773 55.9486 53.9391 54.9946 54.9175C54.0406 55.896 52.9078 56.6719 51.6612 57.2008C50.4145 57.7297 49.0783 58.0013 47.7292 58H10.2708C8.9217 58.0013 7.58555 57.7297 6.33886 57.2008C5.09217 56.6719 3.95941 55.896 3.00543 54.9175C2.05144 53.9391 1.29494 52.7773 0.779235 51.4986C0.263528 50.22 -0.00126702 48.8496 4.55802e-06 47.4658V10.5342C-0.00126702 9.15046 0.263528 7.78005 0.779235 6.50139C1.29494 5.22274 2.05144 4.06094 3.00543 3.08249C3.95941 2.10404 5.09217 1.32815 6.33886 0.799216C7.58555 0.270285 8.9217 -0.00129951 10.2708 4.67489e-06Z" fill="#00005B"/>
<path d="M13.7749 40.6743V15.1692C13.7749 14.9957 13.8474 14.8965 14.0166 14.8965C14.4274 14.8965 14.8141 14.8965 15.3699 14.8717C15.9257 14.8469 16.5541 14.8469 17.2066 14.8222C17.8591 14.7974 18.5599 14.7974 19.3091 14.7726C20.0582 14.7478 20.7832 14.7478 21.5082 14.7478C23.4899 14.7478 25.1332 14.9957 26.4866 15.5162C27.6997 15.9387 28.8059 16.633 29.7249 17.5487C30.5036 18.35 31.1053 19.3136 31.4891 20.3743C31.8549 21.4073 32.043 22.4975 32.0449 23.5965C32.0449 25.7281 31.5616 27.488 30.5949 28.876C29.6237 30.2621 28.2679 31.3159 26.7041 31.8999C25.0607 32.5196 23.2482 32.7427 21.2666 32.7427C20.6866 32.7427 20.2999 32.7427 20.0582 32.7179C19.8166 32.6931 19.4782 32.6931 19.0191 32.6931V40.6495C19.0245 40.6903 19.0218 40.7318 19.0113 40.7715C19.0008 40.8112 18.9825 40.8484 18.9578 40.8807C18.933 40.9131 18.9021 40.94 18.867 40.9599C18.8318 40.9798 18.7931 40.9922 18.7532 40.9965H14.0649C13.8716 40.9965 13.7749 40.8974 13.7749 40.6743ZM19.0432 19.6803V28.0085C19.3816 28.0333 19.6957 28.0581 19.9857 28.0581H21.2666C22.21 28.0592 23.1478 27.9087 24.0457 27.6119C24.8161 27.3795 25.5044 26.9233 26.0274 26.2982C26.5349 25.6786 26.7766 24.8358 26.7766 23.7452C26.7993 22.9707 26.6065 22.2055 26.2207 21.5393C25.8178 20.8957 25.2252 20.4008 24.5291 20.1264C23.6218 19.762 22.6511 19.5932 21.6774 19.6307C21.0491 19.6307 20.4932 19.6307 20.0341 19.6555C19.7037 19.6333 19.3721 19.6416 19.0432 19.6803Z" fill="#9999FF"/>
<path d="M35.4282 21.1179H39.6574C39.7719 21.1207 39.8827 21.1606 39.9738 21.2318C40.0649 21.303 40.1318 21.402 40.1649 21.5145C40.2386 21.7139 40.2874 21.9221 40.3099 22.1341C40.3582 22.382 40.4065 22.6546 40.4307 22.9025C40.4549 23.1504 40.479 23.4726 40.479 23.7948C41.2047 22.926 42.0815 22.2031 43.0649 21.6632C44.1882 21.0232 45.4532 20.6903 46.7382 20.6965C46.778 20.691 46.8184 20.6937 46.8571 20.7045C46.8959 20.7153 46.9321 20.734 46.9636 20.7594C46.9952 20.7848 47.0215 20.8165 47.0408 20.8525C47.0602 20.8886 47.0724 20.9282 47.0765 20.9692V25.9016C47.0765 26.0999 46.9557 26.1743 46.6899 26.1743C45.8132 26.1449 44.9364 26.2281 44.0799 26.4222C43.3818 26.57 42.7012 26.7943 42.0499 27.0914C41.5823 27.3076 41.1629 27.6197 40.8174 28.0085V40.6495C40.8174 40.8974 40.7207 40.9965 40.5032 40.9965H35.7424C35.6978 41.0042 35.6522 41.0026 35.6082 40.9916C35.5643 40.9807 35.523 40.9607 35.4868 40.9329C35.4507 40.905 35.4204 40.87 35.3979 40.8298C35.3753 40.7896 35.361 40.7451 35.3557 40.6991V26.8683C35.3557 26.2734 35.3557 25.6538 35.3315 25.0093C35.3074 24.3649 35.3074 23.7204 35.2832 23.076C35.2832 22.5059 35.2349 21.9606 35.1865 21.3905C35.1801 21.3612 35.1794 21.3309 35.1845 21.3013C35.1895 21.2718 35.2002 21.2435 35.2159 21.2182C35.2316 21.1928 35.2521 21.1709 35.2761 21.1537C35.3001 21.1365 35.3271 21.1243 35.3557 21.1179C35.3557 21.0931 35.404 21.0931 35.4282 21.1179Z" fill="#9999FF"/>
</g>
<defs>
<clipPath id="clip0_11_629">
<rect width="58" height="58" fill="white"/>
</clipPath>
</defs>
</svg>
