<svg width="58" height="58" viewBox="0 0 58 58" fill="none" xmlns="http://www.w3.org/2000/svg">
<g clip-path="url(#clip0_11_534)">
<path d="M10.2708 4.67489e-06H47.7292C49.0783 -0.00129951 50.4145 0.270285 51.6612 0.799216C52.9078 1.32815 54.0406 2.10404 54.9946 3.08249C55.9486 4.06094 56.7051 5.22274 57.2208 6.50139C57.7365 7.78005 58.0013 9.15046 58 10.5342V47.4658C58.0013 48.8496 57.7365 50.22 57.2208 51.4986C56.7051 52.7773 55.9486 53.9391 54.9946 54.9175C54.0406 55.896 52.9078 56.6719 51.6612 57.2008C50.4145 57.7297 49.0783 58.0013 47.7292 58H10.2708C8.9217 58.0013 7.58555 57.7297 6.33886 57.2008C5.09217 56.6719 3.95941 55.896 3.00543 54.9175C2.05144 53.9391 1.29494 52.7773 0.779235 51.4986C0.263528 50.22 -0.00126702 48.8496 4.55802e-06 47.4658V10.5342C-0.00126702 9.15046 0.263528 7.78005 0.779235 6.50139C1.29494 5.22274 2.05144 4.06094 3.00543 3.08249C3.95941 2.10404 5.09217 1.32815 6.33886 0.799216C7.58555 0.270285 8.9217 -0.00129951 10.2708 4.67489e-06Z" fill="#470137"/>
<path d="M30.4984 15.2437L23.2484 27.5129L30.9817 40.5257C31.0326 40.6155 31.0498 40.7213 31.03 40.8231C31.0059 40.9223 30.9092 40.8479 30.7642 40.8727H25.23C24.8434 40.8727 24.5775 40.8479 24.4084 40.6001C23.9009 39.559 23.3692 38.5428 22.8617 37.5018C22.3542 36.4608 21.7984 35.4445 21.2184 34.3787C20.6384 33.3129 20.0584 32.2471 19.4784 31.1565H19.43C18.9225 32.2223 18.3667 33.2881 17.8109 34.3539C17.255 35.4197 16.6992 36.4855 16.1675 37.5266C15.6359 38.5676 15.0559 39.6334 14.5 40.6496C14.4034 40.8975 14.21 40.9223 13.9442 40.9223H8.62754C8.53088 40.9223 8.45838 40.9719 8.45838 40.8479C8.44759 40.8015 8.44632 40.7533 8.45464 40.7064C8.46296 40.6595 8.48069 40.6148 8.50671 40.5753L16.0225 27.9343L8.70004 15.2189C8.62754 15.1197 8.60338 15.0206 8.65171 14.971C8.68117 14.9357 8.71855 14.9082 8.76064 14.8909C8.80273 14.8737 8.84828 14.8671 8.89338 14.8719H14.3792C14.4935 14.8744 14.6071 14.8911 14.7175 14.9214C14.8144 14.9749 14.8972 15.0514 14.9592 15.1445C15.4184 16.2103 15.95 17.2761 16.5059 18.3419C17.0617 19.4078 17.6417 20.4488 18.2459 21.4898C18.85 22.5308 19.3575 23.5719 19.865 24.6377H19.9134C20.4209 23.5471 20.9525 22.4813 21.4842 21.4402C22.0159 20.3992 22.5717 19.3582 23.1275 18.3172C23.6834 17.2761 24.215 16.2103 24.7467 15.1941C24.765 15.0965 24.8164 15.0087 24.8917 14.9462C24.9874 14.8921 25.0987 14.8745 25.2059 14.8966H30.305C30.3336 14.8901 30.3632 14.8893 30.392 14.8945C30.4208 14.8997 30.4484 14.9106 30.4731 14.9268C30.4978 14.9429 30.5192 14.9639 30.5359 14.9885C30.5527 15.0131 30.5646 15.0408 30.5709 15.0702C30.595 15.0949 30.5467 15.1941 30.4984 15.2437Z" fill="#FF61F6"/>
<path d="M41.6634 41.3932C39.872 41.4233 38.0968 41.0422 36.4675 40.2778C34.9517 39.5508 33.6814 38.3773 32.8184 36.9068C31.9242 35.3949 31.4892 33.5111 31.4892 31.2556C31.4647 29.4213 31.924 27.6143 32.8184 26.0257C33.7355 24.4111 35.0638 23.083 36.6609 22.1838C38.3525 21.2171 40.3825 20.7462 42.775 20.7462C42.9445 20.7442 43.114 20.7525 43.2825 20.771C43.5 20.7957 43.7417 20.7957 44.0317 20.8205V12.988C44.0317 12.8145 44.1042 12.7154 44.2734 12.7154H49.1792C49.2334 12.7079 49.2883 12.7216 49.3331 12.7537C49.3779 12.7859 49.4092 12.8341 49.4209 12.8889V36.5351C49.4209 36.9812 49.445 37.4769 49.4692 38.0222C49.4934 38.5675 49.5417 39.0385 49.5659 39.4598C49.571 39.5435 49.5505 39.6268 49.5071 39.6979C49.4638 39.7691 49.3998 39.8245 49.3242 39.8564C48.0584 40.4021 46.7372 40.8011 45.385 41.0462C44.1568 41.2734 42.9114 41.3895 41.6634 41.3932ZM44.0317 36.4359V25.5299C43.8165 25.4767 43.5987 25.4353 43.3792 25.406C43.1134 25.3812 42.8475 25.3564 42.5817 25.3564C41.6344 25.3455 40.6982 25.5664 39.8509 26.0009C39.0251 26.4229 38.318 27.0542 37.7967 27.8351C37.265 28.6282 36.9992 29.694 36.9992 30.9829C36.9782 31.8529 37.1175 32.719 37.41 33.5359C37.6438 34.1965 38.0149 34.797 38.4975 35.2957C38.9635 35.7518 39.5259 36.0911 40.1409 36.2872C40.7882 36.5046 41.4655 36.6135 42.1467 36.6094C42.5092 36.6094 42.8475 36.5846 43.1617 36.5598C43.457 36.5814 43.7534 36.5392 44.0317 36.4359Z" fill="#FF61F6"/>
</g>
<defs>
<clipPath id="clip0_11_534">
<rect width="58" height="58" fill="white"/>
</clipPath>
</defs>
</svg>
