<svg width="20" height="20" viewBox="0 0 20 20" fill="none" xmlns="http://www.w3.org/2000/svg">
<path d="M17.4167 1.66669H2.58334C2.34022 1.66669 2.10707 1.76326 1.93516 1.93517C1.76325 2.10708 1.66667 2.34024 1.66667 2.58335V17.4167C1.66667 17.5371 1.69038 17.6563 1.73645 17.7675C1.78252 17.8787 1.85004 17.9797 1.93516 18.0649C2.02028 18.15 2.12133 18.2175 2.23255 18.2636C2.34376 18.3096 2.46296 18.3334 2.58334 18.3334H10.5667V11.875H8.40001V9.37502H10.5667V7.50002C10.5218 7.05982 10.5738 6.61513 10.7189 6.19713C10.8641 5.77914 11.099 5.39797 11.4071 5.08036C11.7151 4.76275 12.089 4.51639 12.5024 4.35855C12.9157 4.20072 13.3586 4.13523 13.8 4.16669C14.4486 4.1627 15.0969 4.19608 15.7417 4.26669V6.51669H14.4167C13.3667 6.51669 13.1667 7.01669 13.1667 7.74169V9.35002H15.6667L15.3417 11.85H13.1667V18.3334H17.4167C17.5371 18.3334 17.6563 18.3096 17.7675 18.2636C17.8787 18.2175 17.9797 18.15 18.0649 18.0649C18.15 17.9797 18.2175 17.8787 18.2636 17.7675C18.3096 17.6563 18.3333 17.5371 18.3333 17.4167V2.58335C18.3333 2.46298 18.3096 2.34378 18.2636 2.23256C18.2175 2.12135 18.15 2.02029 18.0649 1.93517C17.9797 1.85005 17.8787 1.78253 17.7675 1.73646C17.6563 1.6904 17.5371 1.66669 17.4167 1.66669V1.66669Z" fill="white"/>
</svg>
