<svg width="20" height="20" viewBox="0 0 20 20" fill="none" xmlns="http://www.w3.org/2000/svg">
<path d="M10 7.93335C9.59126 7.93335 9.19169 8.05456 8.85183 8.28165C8.51197 8.50874 8.24708 8.83151 8.09065 9.20914C7.93423 9.58678 7.89331 10.0023 7.97305 10.4032C8.05279 10.8041 8.24962 11.1723 8.53865 11.4614C8.82768 11.7504 9.19592 11.9472 9.59682 12.027C9.99771 12.1067 10.4133 12.0658 10.7909 11.9094C11.1685 11.753 11.4913 11.4881 11.7184 11.1482C11.9455 10.8083 12.0667 10.4088 12.0667 10C12.0667 9.72862 12.0132 9.45988 11.9094 9.20914C11.8055 8.9584 11.6533 8.73057 11.4614 8.53867C11.2695 8.34676 11.0416 8.19453 10.7909 8.09067C10.5401 7.98681 10.2714 7.93335 10 7.93335V7.93335ZM18.275 5.89169C18.2706 5.24815 18.1521 4.6105 17.925 4.00835C17.7577 3.56774 17.4989 3.1676 17.1657 2.83434C16.8324 2.50108 16.4323 2.24229 15.9917 2.07502C15.3895 1.84791 14.7519 1.7294 14.1083 1.72502C13.0333 1.66669 12.7167 1.66669 10 1.66669C7.28334 1.66669 6.96667 1.66669 5.89167 1.72502C5.24814 1.7294 4.61048 1.84791 4.00834 2.07502C3.56772 2.24229 3.16758 2.50108 2.83433 2.83434C2.50107 3.1676 2.24227 3.56774 2.07501 4.00835C1.84789 4.6105 1.72939 5.24815 1.72501 5.89169C1.66667 6.96669 1.66667 7.28335 1.66667 10C1.66667 12.7167 1.66667 13.0334 1.72501 14.1084C1.73397 14.7542 1.85232 15.3938 2.07501 16C2.24153 16.4386 2.50011 16.8364 2.83334 17.1667C3.16517 17.5019 3.56616 17.7607 4.00834 17.925C4.61048 18.1521 5.24814 18.2706 5.89167 18.275C6.96667 18.3334 7.28334 18.3334 10 18.3334C12.7167 18.3334 13.0333 18.3334 14.1083 18.275C14.7519 18.2706 15.3895 18.1521 15.9917 17.925C16.4338 17.7607 16.8348 17.5019 17.1667 17.1667C17.4999 16.8364 17.7585 16.4386 17.925 16C18.1519 15.3949 18.2704 14.7546 18.275 14.1084C18.3333 13.0334 18.3333 12.7167 18.3333 10C18.3333 7.28335 18.3333 6.96669 18.275 5.89169V5.89169ZM16.1583 12.5584C16.1316 13.0726 16.0218 13.5792 15.8333 14.0584C15.6716 14.4581 15.4311 14.8212 15.1261 15.1261C14.8212 15.4311 14.4581 15.6716 14.0583 15.8334C13.5746 16.0113 13.0652 16.1098 12.55 16.125C11.8917 16.125 11.7167 16.125 10 16.125C8.28334 16.125 8.10834 16.125 7.45001 16.125C6.93478 16.1098 6.42541 16.0113 5.94167 15.8334C5.52842 15.6798 5.15524 15.4348 4.85001 15.1167C4.54806 14.8177 4.31488 14.4566 4.16667 14.0584C3.98797 13.5751 3.89218 13.0652 3.88334 12.55C3.88334 11.8917 3.88334 11.7167 3.88334 10C3.88334 8.28335 3.88334 8.10835 3.88334 7.45002C3.89218 6.93488 3.98797 6.42492 4.16667 5.94169C4.32024 5.52844 4.56523 5.15525 4.88334 4.85002C5.18362 4.54971 5.54439 4.31677 5.94167 4.16669C6.42541 3.98869 6.93478 3.8902 7.45001 3.87502V3.87502C8.10834 3.87502 8.28334 3.87502 10 3.87502C11.7167 3.87502 11.8917 3.87502 12.55 3.87502C13.0652 3.8902 13.5746 3.98869 14.0583 4.16669C14.4716 4.32025 14.8448 4.56525 15.15 4.88335C15.452 5.18231 15.6851 5.54346 15.8333 5.94169C16.0113 6.42543 16.1098 6.9348 16.125 7.45002C16.125 8.10835 16.125 8.28335 16.125 10C16.125 11.7167 16.1833 11.8917 16.1583 12.55V12.5584ZM14.825 6.35835C14.7258 6.08917 14.5694 5.84472 14.3665 5.64187C14.1636 5.43901 13.9192 5.28257 13.65 5.18335C13.2804 5.05524 12.8911 4.99318 12.5 5.00002C11.85 5.00002 11.6667 5.00002 10 5.00002C8.33334 5.00002 8.15001 5.00002 7.50001 5.00002C7.10689 5.00386 6.71756 5.07722 6.35001 5.21669C6.08495 5.3114 5.84308 5.46145 5.64049 5.65685C5.4379 5.85226 5.27922 6.08855 5.17501 6.35002C5.05399 6.72116 4.99486 7.10968 5.00001 7.50002C5.00001 8.15002 5.00001 8.33335 5.00001 10C5.00001 11.6667 5.00001 11.85 5.00001 12.5C5.00827 12.8927 5.08148 13.2813 5.21667 13.65C5.31589 13.9192 5.47233 14.1637 5.67518 14.3665C5.87804 14.5694 6.12249 14.7258 6.39167 14.825C6.74723 14.9558 7.12138 15.0289 7.50001 15.0417V15.0417C8.15001 15.0417 8.33334 15.0417 10 15.0417C11.6667 15.0417 11.85 15.0417 12.5 15.0417C12.8931 15.0378 13.2824 14.9645 13.65 14.825C13.9192 14.7258 14.1636 14.5694 14.3665 14.3665C14.5694 14.1637 14.7258 13.9192 14.825 13.65C14.9645 13.2825 15.0378 12.8931 15.0417 12.5C15.0417 11.85 15.0417 11.6667 15.0417 10C15.0417 8.33335 15.0417 8.15002 15.0417 7.50002C15.0419 7.10652 14.9684 6.71646 14.825 6.35002V6.35835ZM10 13.1834C9.58236 13.1834 9.16881 13.101 8.78306 12.9409C8.3973 12.7808 8.04693 12.5462 7.75199 12.2505C7.45705 11.9548 7.22336 11.6038 7.06429 11.2176C6.90522 10.8314 6.82391 10.4177 6.825 10V10C6.82501 9.37006 7.01192 8.75427 7.36208 8.23059C7.71224 7.70692 8.2099 7.29891 8.79206 7.05822C9.37423 6.81752 10.0147 6.75497 10.6324 6.87848C11.2502 7.00198 11.8174 7.306 12.2622 7.75203C12.7071 8.19806 13.0096 8.76605 13.1315 9.38411C13.2534 10.0022 13.1892 10.6425 12.947 11.224C12.7047 11.8055 12.2954 12.3021 11.7708 12.6509C11.2462 12.9997 10.63 13.185 10 13.1834V13.1834ZM13.3333 7.44169C13.1491 7.42219 12.9786 7.3352 12.8547 7.1975C12.7308 7.05979 12.6623 6.8811 12.6623 6.69585C12.6623 6.51061 12.7308 6.33192 12.8547 6.19421C12.9786 6.0565 13.1491 5.96952 13.3333 5.95002V5.95002C13.5176 5.96952 13.688 6.0565 13.8119 6.19421C13.9358 6.33192 14.0044 6.51061 14.0044 6.69585C14.0044 6.8811 13.9358 7.05979 13.8119 7.1975C13.688 7.3352 13.5176 7.42219 13.3333 7.44169Z" fill="white"/>
</svg>
