<svg width="20" height="20" viewBox="0 0 20 20" fill="none" xmlns="http://www.w3.org/2000/svg">
<path d="M17.0583 1.66668H2.94167C2.78299 1.66448 2.62543 1.69355 2.47798 1.75225C2.33053 1.81095 2.19609 1.89812 2.08234 2.00877C1.96858 2.11943 1.87774 2.25142 1.815 2.39719C1.75226 2.54296 1.71885 2.69966 1.71667 2.85835V17.1417C1.71885 17.3004 1.75226 17.4571 1.815 17.6028C1.87774 17.7486 1.96858 17.8806 2.08234 17.9913C2.19609 18.1019 2.33053 18.1891 2.47798 18.2478C2.62543 18.3065 2.78299 18.3356 2.94167 18.3333H17.0583C17.217 18.3356 17.3746 18.3065 17.522 18.2478C17.6695 18.1891 17.8039 18.1019 17.9177 17.9913C18.0314 17.8806 18.1223 17.7486 18.185 17.6028C18.2478 17.4571 18.2812 17.3004 18.2833 17.1417V2.85835C18.2812 2.69966 18.2478 2.54296 18.185 2.39719C18.1223 2.25142 18.0314 2.11943 17.9177 2.00877C17.8039 1.89812 17.6695 1.81095 17.522 1.75225C17.3746 1.69355 17.217 1.66448 17.0583 1.66668V1.66668ZM6.74167 15.6167H4.24167V8.11668H6.74167V15.6167ZM5.49167 7.06668C5.14689 7.06668 4.81623 6.92972 4.57244 6.68592C4.32864 6.44212 4.19167 6.11146 4.19167 5.76668C4.19167 5.4219 4.32864 5.09124 4.57244 4.84744C4.81623 4.60365 5.14689 4.46668 5.49167 4.46668C5.67475 4.44592 5.86016 4.46406 6.03574 4.51992C6.21132 4.57578 6.37312 4.66809 6.51056 4.79082C6.64799 4.91354 6.75795 5.06391 6.83323 5.23208C6.90852 5.40025 6.94744 5.58243 6.94744 5.76668C6.94744 5.95093 6.90852 6.13311 6.83323 6.30128C6.75795 6.46945 6.64799 6.61982 6.51056 6.74255C6.37312 6.86527 6.21132 6.95759 6.03574 7.01345C5.86016 7.0693 5.67475 7.08744 5.49167 7.06668V7.06668ZM15.7583 15.6167H13.2583V11.5917C13.2583 10.5833 12.9 9.92502 11.9917 9.92502C11.7106 9.92707 11.4368 10.0152 11.2074 10.1777C10.9779 10.3401 10.8037 10.5689 10.7083 10.8333C10.6431 11.0292 10.6149 11.2355 10.625 11.4417V15.6083H8.12501C8.12501 15.6083 8.12501 8.79168 8.12501 8.10835H10.625V9.16668C10.8521 8.7726 11.1824 8.44795 11.5804 8.22768C11.9783 8.00742 12.4288 7.89989 12.8833 7.91668C14.55 7.91668 15.7583 8.99168 15.7583 11.3V15.6167Z" fill="white" fill-opacity="0.96"/>
</svg>
