<svg width="780" height="780" viewBox="0 0 780 780" fill="none" xmlns="http://www.w3.org/2000/svg">
<rect width="780" height="780" fill="#2493FF"/>
<path d="M322.939 349.707C321.914 345.527 320.298 341.86 318.089 338.706C315.881 335.473 313.121 332.752 309.809 330.544C306.576 328.257 302.791 326.561 298.453 325.457C294.195 324.274 289.503 323.683 284.377 323.683C273.337 323.683 263.913 326.325 256.106 331.608C248.378 336.892 242.463 344.502 238.362 354.438C234.34 364.375 232.33 376.361 232.33 390.398C232.33 404.593 234.262 416.737 238.126 426.832C241.99 436.926 247.747 444.654 255.396 450.016C263.045 455.379 272.548 458.06 283.904 458.06C293.919 458.06 302.239 456.601 308.863 453.683C315.566 450.765 320.574 446.625 323.886 441.263C327.198 435.9 328.854 429.592 328.854 422.336L340.21 423.519H284.85V376.677H392.257V410.271C392.257 432.352 387.565 451.239 378.181 466.932C368.875 482.546 356.021 494.533 339.618 502.892C323.294 511.172 304.565 515.312 283.431 515.312C259.852 515.312 239.151 510.305 221.329 500.289C203.506 490.274 189.588 476.001 179.572 457.469C169.636 438.936 164.668 416.895 164.668 391.345C164.668 371.314 167.704 353.571 173.776 338.114C179.927 322.658 188.444 309.607 199.327 298.96C210.209 288.236 222.788 280.152 237.061 274.711C251.335 269.191 266.634 266.431 282.957 266.431C297.31 266.431 310.637 268.481 322.939 272.582C335.32 276.604 346.242 282.36 355.706 289.852C365.248 297.265 372.936 306.058 378.772 316.231C384.608 326.404 388.156 337.562 389.418 349.707H322.939ZM422.924 512V269.743H527.965C546.418 269.743 561.914 272.227 574.453 277.195C587.07 282.163 596.573 289.182 602.96 298.251C609.427 307.32 612.66 318.005 612.66 330.307C612.66 339.218 610.689 347.341 606.746 354.675C602.882 362.009 597.44 368.16 590.422 373.128C583.403 378.017 575.202 381.408 565.817 383.301V385.667C576.227 386.061 585.69 388.703 594.207 393.592C602.724 398.403 609.506 405.066 614.553 413.583C619.6 422.021 622.123 431.957 622.123 443.392C622.123 456.64 618.653 468.43 611.714 478.761C604.853 489.091 595.074 497.214 582.378 503.128C569.682 509.043 554.541 512 536.955 512H422.924ZM488.693 459.479H519.448C530.488 459.479 538.769 457.429 544.289 453.328C549.809 449.149 552.569 442.998 552.569 434.875C552.569 429.197 551.268 424.387 548.665 420.444C546.063 416.501 542.357 413.504 537.546 411.454C532.815 409.404 527.097 408.378 520.394 408.378H488.693V459.479ZM488.693 367.687H515.663C521.419 367.687 526.506 366.78 530.922 364.966C535.338 363.152 538.769 360.55 541.213 357.159C543.737 353.689 544.998 349.47 544.998 344.502C544.998 337.01 542.317 331.293 536.955 327.35C531.592 323.328 524.81 321.317 516.609 321.317H488.693V367.687Z" fill="white"/>
</svg>
