<svg width="58" height="58" viewBox="0 0 58 58" fill="none" xmlns="http://www.w3.org/2000/svg">
<g clip-path="url(#clip0_11_546)">
<path d="M10.2708 4.67489e-06H47.7292C49.0783 -0.00129951 50.4145 0.270285 51.6612 0.799216C52.9078 1.32815 54.0406 2.10404 54.9946 3.08249C55.9486 4.06094 56.7051 5.22274 57.2208 6.50139C57.7365 7.78005 58.0013 9.15046 58 10.5342V47.4658C58.0013 48.8496 57.7365 50.22 57.2208 51.4986C56.7051 52.7773 55.9486 53.9391 54.9946 54.9175C54.0406 55.896 52.9078 56.6719 51.6612 57.2008C50.4145 57.7297 49.0783 58.0013 47.7292 58H10.2708C8.9217 58.0013 7.58555 57.7297 6.33886 57.2008C5.09217 56.6719 3.95941 55.896 3.00543 54.9175C2.05144 53.9391 1.29494 52.7773 0.779235 51.4986C0.263528 50.22 -0.00126702 48.8496 4.55802e-06 47.4658V10.5342C-0.00126702 9.15046 0.263528 7.78005 0.779235 6.50139C1.29494 5.22274 2.05144 4.06094 3.00543 3.08249C3.95941 2.10404 5.09217 1.32815 6.33886 0.799216C7.58555 0.270285 8.9217 -0.00129951 10.2708 4.67489e-06Z" fill="#00005B"/>
<path d="M23.2966 34.7009H14.3066L12.47 40.5505C12.4495 40.6566 12.391 40.7511 12.306 40.8153C12.2211 40.8795 12.1158 40.9088 12.0108 40.8975H7.46748C7.20165 40.8975 7.12915 40.7487 7.20165 40.4513L14.9833 17.5735C15.0558 17.3257 15.1283 17.1026 15.225 16.8051C15.3222 16.2739 15.3708 15.7345 15.37 15.194C15.3627 15.132 15.3786 15.0694 15.4145 15.0188C15.4503 14.9682 15.5035 14.9334 15.5633 14.9214H21.8225C21.9916 14.9214 22.1125 14.9957 22.1366 15.1197L30.9575 40.5257C31.03 40.7983 30.9575 40.9222 30.7158 40.9222H25.665C25.5796 40.9307 25.494 40.908 25.4233 40.8581C25.3525 40.8082 25.3012 40.7344 25.2783 40.6496L23.2966 34.7009ZM15.7083 29.7684H21.8466C21.7016 29.2479 21.5083 28.6282 21.2908 27.9838C21.0733 27.3393 20.8558 26.5957 20.6383 25.8522C20.4208 25.1086 20.1791 24.3402 19.9375 23.5718C19.6958 22.8034 19.4783 22.0846 19.285 21.3658C19.0916 20.647 18.9225 20.0274 18.7533 19.4325H18.705C18.4878 20.5128 18.2135 21.5802 17.8833 22.6299C17.5208 23.8197 17.1583 25.059 16.7716 26.2983C16.4575 27.5624 16.0708 28.7274 15.7083 29.7684Z" fill="#9999FF"/>
<path d="M45.2884 32.4205H37.6275C37.719 33.2027 37.9745 33.9553 38.3767 34.6265C38.8038 35.2946 39.4191 35.8133 40.1409 36.1137C41.1177 36.5421 42.172 36.7533 43.2342 36.7333C44.0781 36.7175 44.9191 36.6262 45.7475 36.4607C46.4845 36.3617 47.2069 36.1703 47.8984 35.8906C48.0192 35.7915 48.0917 35.841 48.0917 36.0889V39.8812C48.0875 39.982 48.0712 40.0819 48.0434 40.1786C47.9997 40.2482 47.942 40.3073 47.8742 40.3521C47.1013 40.7003 46.2897 40.95 45.4575 41.0957C44.3271 41.3187 43.1768 41.4184 42.0259 41.3932C40.1892 41.3932 38.6425 41.0957 37.3859 40.5256C36.2033 39.9992 35.1597 39.1922 34.3409 38.1709C33.5757 37.216 33.0083 36.1112 32.6734 34.9239C31.9652 32.4511 31.9989 29.817 32.77 27.3641C33.1554 26.1231 33.7708 24.9701 34.5825 23.9684C35.3817 22.9779 36.3789 22.1749 37.5067 21.6137C38.6425 21.0436 39.9959 20.8453 41.5425 20.8453C42.8311 20.8146 44.1104 21.077 45.2884 21.6137C46.2784 22.0539 47.1493 22.7344 47.8259 23.5966C48.4682 24.4432 48.9592 25.3998 49.2759 26.4222C49.5832 27.3991 49.7382 28.4197 49.735 29.4462C49.735 30.041 49.7109 30.5615 49.6867 31.0325C49.6625 31.5034 49.6142 31.8504 49.59 32.0735C49.5794 32.1594 49.5397 32.2387 49.4778 32.2976C49.416 32.3565 49.336 32.3912 49.2517 32.3957C49.1067 32.3957 48.8409 32.4205 48.4542 32.4453C47.9889 32.4995 47.5208 32.5243 47.0525 32.5197C46.4967 32.5197 45.9167 32.4205 45.2884 32.4205ZM37.6275 28.8017H42.7267C43.355 28.8017 43.8142 28.8017 44.1042 28.7769C44.3028 28.76 44.494 28.6918 44.66 28.5786V28.3308C44.661 28.019 44.612 27.7092 44.515 27.4137C44.3035 26.7355 43.8826 26.1462 43.3159 25.7349C42.7491 25.3235 42.0673 25.1124 41.3734 25.1333C40.7175 25.0956 40.065 25.2534 39.4947 25.5877C38.9243 25.922 38.4605 26.4184 38.1592 27.0171C37.8773 27.5737 37.6971 28.1785 37.6275 28.8017Z" fill="#9999FF"/>
</g>
<defs>
<clipPath id="clip0_11_546">
<rect width="58" height="58" fill="white"/>
</clipPath>
</defs>
</svg>
