<svg width="58" height="58" viewBox="0 0 58 58" fill="none" xmlns="http://www.w3.org/2000/svg">
<path d="M49.4935 11.3696L45.7595 53.2003L28.9749 57.8535L12.2365 53.2067L8.50635 11.3696H49.4935Z" fill="#E44D26"/>
<path d="M29 54.2966L42.5628 50.5366L45.7536 14.7903H29V54.2966Z" fill="#F16529"/>
<path d="M21.7412 25.0528H29.0001V19.9216H16.1335L16.2563 21.2982L17.5175 35.4383H29.0001V30.3072H22.2102L21.7412 25.0528ZM22.8977 38.004H17.7468L18.4656 46.0607L28.9764 48.9783L29.0001 48.9719V43.6333L28.9776 43.6393L23.263 42.0963L22.8977 38.004Z" fill="#EBEBEB"/>
<path d="M12.3198 0H14.9274V2.57626H17.3128V0H19.9206V7.80156H17.313V5.18915H14.9276V7.80156H12.32V0H12.3198ZM23.3495 2.58719H21.0542V0H28.2542V2.58719H25.9575V7.80156H23.3499V2.58719H23.3498H23.3495ZM29.3969 0H32.1158L33.7883 2.74126L35.4593 0H38.1793V7.80156H35.5823V3.93468L33.7883 6.70856H33.7434L31.9482 3.93468V7.80156H29.3969V0ZM39.477 0H42.0854V5.22289H45.7524V7.80156H39.4768V0H39.477Z" fill="white"/>
<path d="M28.9823 35.4383H35.3008L34.7051 42.0931L28.9822 43.6377V48.9759L39.5014 46.0607L39.5785 45.1937L40.7845 31.685L40.9096 30.3072H28.9823V35.4383ZM28.9823 25.0403V25.0528H41.3765L41.4793 23.8995L41.7133 21.2982L41.8358 19.9216H28.9823V25.0404V25.0403Z" fill="white"/>
</svg>
