<svg width="20" height="20" viewBox="0 0 20 20" fill="none" xmlns="http://www.w3.org/2000/svg">
<path d="M16.725 5.29168H12.5V6.46668H16.7417L16.725 5.29168ZM15.8333 13.375C15.5128 13.5874 15.1343 13.6951 14.75 13.6833C14.4956 13.7099 14.2385 13.6836 13.9947 13.6062C13.7509 13.5287 13.5258 13.4018 13.3333 13.2333C12.9775 12.8299 12.7923 12.3041 12.8167 11.7667H18.3333C18.3731 11.2071 18.3253 10.6448 18.1917 10.1C18.0624 9.5817 17.8362 9.09253 17.525 8.65834C17.2118 8.23718 16.8072 7.89244 16.3417 7.65001C15.8237 7.39463 15.2524 7.26609 14.675 7.27501C14.1319 7.27103 13.5936 7.37587 13.0917 7.58334C12.6321 7.77709 12.2157 8.06037 11.8667 8.41668C11.5187 8.78011 11.2492 9.21127 11.075 9.68334C10.8881 10.193 10.7949 10.7322 10.8 11.275C10.7914 11.8255 10.8817 12.3731 11.0667 12.8917C11.2237 13.3613 11.4731 13.7948 11.8 14.1667C12.1383 14.5318 12.554 14.8166 13.0167 15C13.5326 15.1966 14.0813 15.2928 14.6333 15.2833C15.4078 15.3075 16.1725 15.1047 16.8333 14.7C17.5008 14.2257 17.9813 13.533 18.1917 12.7417H16.35C16.2514 13.0035 16.07 13.2259 15.8333 13.375ZM12.975 9.94168C13.0399 9.73391 13.1475 9.54204 13.291 9.37841C13.4346 9.21479 13.6108 9.08305 13.8083 8.99168C14.07 8.87392 14.3549 8.81693 14.6417 8.82501C14.8488 8.80732 15.0574 8.83465 15.253 8.90513C15.4486 8.97561 15.6267 9.08758 15.775 9.23334C16.0582 9.57996 16.2399 9.99817 16.3 10.4417H12.8417C12.8552 10.2723 12.8859 10.1048 12.9333 9.94168H12.975ZM8.56666 9.54168C8.9908 9.36506 9.35934 9.07714 9.63333 8.70834C9.88518 8.31668 10.0103 7.85695 9.99166 7.39168C10.008 6.96738 9.92526 6.5451 9.75 6.15834C9.60276 5.82327 9.3664 5.53503 9.06666 5.32501C8.74887 5.10665 8.388 4.9589 8.00833 4.89168C7.55901 4.79744 7.10072 4.75273 6.64166 4.75834H1.66666V15.2417H6.75C7.21391 15.242 7.67596 15.1832 8.125 15.0667C8.55062 14.9566 8.95385 14.7733 9.31666 14.525C9.66811 14.2814 9.95429 13.9552 10.15 13.575C10.3666 13.1498 10.4726 12.677 10.4583 12.2C10.4741 11.609 10.3083 11.0273 9.98333 10.5333C9.63382 10.0366 9.11543 9.68411 8.525 9.54168H8.56666ZM3.975 6.55001H6.13333C6.33162 6.54977 6.52956 6.56649 6.725 6.60001C6.90495 6.62668 7.07778 6.68901 7.23333 6.78334C7.38362 6.86836 7.5054 6.99593 7.58333 7.15001C7.67985 7.33478 7.72584 7.54176 7.71666 7.75001C7.73219 7.92938 7.70476 8.10986 7.63665 8.27651C7.56854 8.44317 7.46171 8.5912 7.325 8.70834C7.02676 8.91337 6.6699 9.01575 6.30833 9.00001H3.975V6.55001ZM8.00833 12.75C7.92271 12.9198 7.79324 13.0637 7.63333 13.1667C7.46692 13.2702 7.28355 13.3435 7.09166 13.3833C6.87838 13.4311 6.6602 13.4535 6.44166 13.45H3.94166V10.575H6.44166C6.87068 10.5562 7.29434 10.676 7.65 10.9167C7.81067 11.0609 7.93514 11.2409 8.01332 11.4421C8.0915 11.6433 8.12119 11.8602 8.1 12.075C8.12253 12.3041 8.09113 12.5352 8.00833 12.75V12.75Z" fill="white"/>
</svg>
