<svg width="20" height="20" viewBox="0 0 20 20" fill="none" xmlns="http://www.w3.org/2000/svg">
<path d="M18.3333 5.45835C18.324 5.09883 18.2962 4.74003 18.25 4.38335C18.1878 4.07096 18.0841 3.76828 17.9417 3.48335C17.7927 3.17427 17.5927 2.89254 17.35 2.65002C17.1051 2.41019 16.8238 2.21051 16.5167 2.05835C16.2314 1.91872 15.9287 1.81783 15.6167 1.75835C15.2634 1.70544 14.9071 1.67482 14.55 1.66669H5.45834C5.09882 1.67605 4.74001 1.70386 4.38334 1.75002C4.07094 1.81224 3.76826 1.91594 3.48334 2.05835C3.17426 2.2073 2.89253 2.40733 2.65001 2.65002C2.41018 2.89495 2.2105 3.17618 2.05834 3.48335C1.91871 3.76866 1.81782 4.07133 1.75834 4.38335C1.70542 4.73663 1.67481 5.09289 1.66667 5.45002C1.66667 5.60835 1.66667 5.83335 1.66667 5.90002V14.1C1.66667 14.1917 1.66667 14.3917 1.66667 14.5417C1.67604 14.9012 1.70385 15.26 1.75001 15.6167C1.81223 15.9291 1.91592 16.2318 2.05834 16.5167C2.20729 16.8258 2.40732 17.1075 2.65001 17.35C2.89493 17.5899 3.17617 17.7895 3.48334 17.9417C3.76864 18.0813 4.07132 18.1822 4.38334 18.2417C4.73662 18.2946 5.09288 18.3252 5.45001 18.3334H14.5417C14.9012 18.324 15.26 18.2962 15.6167 18.25C15.9291 18.1878 16.2317 18.0841 16.5167 17.9417C16.8258 17.7927 17.1075 17.5927 17.35 17.35C17.5898 17.1051 17.7895 16.8239 17.9417 16.5167C18.0813 16.2314 18.1822 15.9287 18.2417 15.6167C18.2946 15.2634 18.3252 14.9071 18.3333 14.55C18.3333 14.3917 18.3333 14.1917 18.3333 14.1V5.90002C18.3333 5.83335 18.3333 5.60835 18.3333 5.45835ZM10.1917 15.8334C9.19089 15.8284 8.20762 15.5704 7.33334 15.0834L4.16667 15.9167L5.00001 12.8167C4.4626 11.9137 4.17499 10.8841 4.16667 9.83335C4.16999 8.65246 4.52267 7.49895 5.18031 6.51811C5.83794 5.53727 6.7711 4.77296 7.86228 4.32145C8.95345 3.86994 10.1538 3.75141 11.3122 3.9808C12.4707 4.21019 13.5353 4.77724 14.372 5.61052C15.2088 6.44381 15.7803 7.50607 16.0145 8.66351C16.2487 9.82095 16.1351 11.0218 15.6882 12.1149C15.2412 13.2079 14.4808 14.1442 13.5027 14.8059C12.5246 15.4676 11.3725 15.8251 10.1917 15.8334V15.8334ZM10.1917 4.89169C9.30818 4.9018 8.44314 5.14584 7.68464 5.59897C6.92613 6.0521 6.30124 6.69813 5.87359 7.47129C5.44593 8.24445 5.2308 9.11712 5.25008 10.0005C5.26935 10.8838 5.52236 11.7463 5.98334 12.5L6.10001 12.6917L5.60001 14.5167L7.50001 14L7.68334 14.1084C8.44132 14.5548 9.30367 14.7934 10.1833 14.8V14.8C11.5094 14.8 12.7812 14.2732 13.7189 13.3356C14.6566 12.3979 15.1833 11.1261 15.1833 9.80002C15.1833 8.47394 14.6566 7.20217 13.7189 6.26449C12.7812 5.3268 11.5094 4.80002 10.1833 4.80002L10.1917 4.89169ZM13.1083 11.9917C12.9992 12.1737 12.853 12.3309 12.6794 12.4529C12.5057 12.5749 12.3083 12.6591 12.1 12.7C11.7888 12.7569 11.4684 12.7369 11.1667 12.6417C10.8828 12.5529 10.6045 12.4472 10.3333 12.325C9.30312 11.8081 8.42454 11.0329 7.78334 10.075C7.43491 9.63125 7.2235 9.09548 7.17501 8.53335C7.17004 8.29984 7.21422 8.0679 7.30466 7.85256C7.3951 7.63722 7.5298 7.44329 7.70001 7.28335C7.75014 7.22651 7.81165 7.18082 7.88055 7.14924C7.94945 7.11766 8.02422 7.10089 8.10001 7.10002H8.33334C8.42501 7.10002 8.55001 7.10002 8.66667 7.35835C8.78334 7.61669 9.09167 8.39169 9.13334 8.46669C9.15382 8.50666 9.16449 8.55094 9.16449 8.59585C9.16449 8.64077 9.15382 8.68504 9.13334 8.72502C9.0965 8.81558 9.0459 8.8999 8.98334 8.97502C8.90834 9.06669 8.82501 9.17502 8.75834 9.24169C8.69167 9.30835 8.60834 9.39169 8.69167 9.54169C8.91841 9.92435 9.19907 10.2724 9.52501 10.575C9.87994 10.8887 10.2858 11.1395 10.725 11.3167C10.875 11.3917 10.9667 11.3834 11.05 11.3167C11.1333 11.25 11.425 10.8834 11.525 10.7334C11.625 10.5834 11.725 10.6084 11.8583 10.6584C11.9917 10.7084 12.7333 11.0667 12.8833 11.1417C13.0333 11.2167 13.125 11.25 13.1667 11.3167C13.2028 11.5348 13.1827 11.7585 13.1083 11.9667V11.9917Z" fill="white"/>
</svg>
